<?xml version="1.0" encoding="UTF-8"?>
<svg version="1.1" xmlns="http://www.w3.org/2000/svg" width="512" height="512">
<path d="M0 0 C56.23687309 -1.25063469 109.88729625 14.87087577 154.12304688 50.203125 C156.33762685 52.07190578 156.33762685 52.07190578 158.49414062 53.06640625 C158.49414062 53.72640625 158.49414062 54.38640625 158.49414062 55.06640625 C159.07679688 55.33453125 159.65945313 55.60265625 160.25976562 55.87890625 C162.52200663 57.08121616 164.2999038 58.40466538 166.24414062 60.06640625 C166.85773438 60.58203125 167.47132813 61.09765625 168.10351562 61.62890625 C169.49414062 63.06640625 169.49414062 63.06640625 169.49414062 65.06640625 C170.15414063 65.06640625 170.81414062 65.06640625 171.49414062 65.06640625 C171.49414062 65.72640625 171.49414062 66.38640625 171.49414062 67.06640625 C172.81414062 67.72640625 174.13414062 68.38640625 175.49414062 69.06640625 C175.49414062 69.72640625 175.49414062 70.38640625 175.49414062 71.06640625 C176.15414063 71.06640625 176.81414062 71.06640625 177.49414062 71.06640625 C177.49414062 71.72640625 177.49414062 72.38640625 177.49414062 73.06640625 C178.15414063 73.06640625 178.81414062 73.06640625 179.49414062 73.06640625 C181.00195312 74.52734375 181.00195312 74.52734375 182.61914062 76.44140625 C183.42738281 77.38113281 183.42738281 77.38113281 184.25195312 78.33984375 C185.49414062 80.06640625 185.49414062 80.06640625 185.49414062 82.06640625 C186.15414063 82.06640625 186.81414062 82.06640625 187.49414062 82.06640625 C188.90429687 83.6484375 188.90429687 83.6484375 190.55664062 85.87890625 C193.21314465 89.40810478 195.95458218 92.81849316 198.80664062 96.19140625 C203.8029544 102.26869421 208.10020055 108.72388396 212.36132812 115.32519531 C213.35532702 116.85304017 214.37579602 118.36359595 215.40039062 119.87109375 C222.4963355 130.48275677 227.52609387 142.35452922 232.29101562 154.16015625 C233.94828785 158.16343722 235.72183409 162.11296665 237.49414062 166.06640625 C238.08952637 165.8240625 238.68491211 165.58171875 239.29833984 165.33203125 C241.98716827 164.23990801 244.67811237 163.15309706 247.36914062 162.06640625 C248.77486328 161.4940625 248.77486328 161.4940625 250.20898438 160.91015625 C251.10488281 160.54921875 252.00078125 160.18828125 252.92382812 159.81640625 C253.75124512 159.48125 254.57866211 159.14609375 255.43115234 158.80078125 C257.49414062 158.06640625 257.49414062 158.06640625 259.49414062 158.06640625 C259.74811277 164.79165781 259.92297004 171.5156713 260.04345703 178.24462891 C260.09368721 180.53220824 260.16188855 182.81946744 260.24853516 185.10595703 C260.37015445 188.39826282 260.42660291 191.68632368 260.47070312 194.98046875 C260.52231598 195.99944244 260.57392883 197.01841614 260.62710571 198.06826782 C260.62945163 201.05161483 260.52903584 203.26369872 259.49414062 206.06640625 C256.21414692 209.04788297 252.07941429 212.06640625 247.49414062 212.06640625 C247.63851563 212.948125 247.78289062 213.82984375 247.93164062 214.73828125 C254.06544421 257.0321099 248.0661257 300.82990751 231.49414062 340.06640625 C231.16075684 340.85966309 230.82737305 341.65291992 230.48388672 342.47021484 C222.84857417 360.30810757 212.13847157 376.30404773 200.74414062 391.94140625 C200.14770752 392.76253906 199.55127441 393.58367187 198.93676758 394.4296875 C198.38335693 395.17347656 197.82994629 395.91726563 197.25976562 396.68359375 C196.77282227 397.33956543 196.28587891 397.99553711 195.78417969 398.67138672 C195.3584668 399.13174316 194.93275391 399.59209961 194.49414062 400.06640625 C193.83414062 400.06640625 193.17414063 400.06640625 192.49414062 400.06640625 C192.12289062 400.90171875 192.12289062 400.90171875 191.74414062 401.75390625 C190.26489244 404.49051538 188.55946623 406.74291494 186.49414062 409.06640625 C185.83414062 409.06640625 185.17414063 409.06640625 184.49414062 409.06640625 C184.24664062 409.63875 183.99914062 410.21109375 183.74414062 410.80078125 C182.30097863 413.41651236 180.6119784 415.21414081 178.49414062 417.31640625 C177.79289062 418.0228125 177.09164063 418.72921875 176.36914062 419.45703125 C174.49414062 421.06640625 174.49414062 421.06640625 172.49414062 421.06640625 C172.49414062 421.72640625 172.49414062 422.38640625 172.49414062 423.06640625 C171.83414062 423.06640625 171.17414063 423.06640625 170.49414062 423.06640625 C170.49414062 423.72640625 170.49414062 424.38640625 170.49414062 425.06640625 C158.76964168 436.34300299 144.03473093 446.86979652 129.49414062 454.06640625 C128.11576668 454.85218382 126.74075824 455.64389373 125.36914062 456.44140625 C94.50907562 473.51293157 59.75826127 483.08752712 24.49414062 484.06640625 C23.75244629 484.08832031 23.01075195 484.11023438 22.24658203 484.1328125 C-43.6347244 485.7699541 -108.43637972 468.10804241 -157.25585938 422.12890625 C-159.6973949 419.7992277 -162.10982894 417.442808 -164.50585938 415.06640625 C-165.1286377 414.45031494 -165.75141602 413.83422363 -166.39306641 413.19946289 C-174.24995258 405.38911 -180.96422779 397.01132542 -187.50585938 388.06640625 C-188.08078125 387.29941406 -188.65570313 386.53242188 -189.24804688 385.7421875 C-213.20106336 352.9070716 -228.78882359 311.30402726 -233.50585938 271.06640625 C-233.60157227 270.26871826 -233.69728516 269.47103027 -233.79589844 268.64916992 C-240.35752457 206.73117276 -223.52829376 144.80848457 -184.83398438 95.87890625 C-181.19179885 91.47895058 -177.38166061 87.26022195 -173.50585938 83.06640625 C-172.67957031 82.13699219 -171.85328125 81.20757812 -171.00195312 80.25 C-166.78954983 75.5231047 -162.57850067 71.03686791 -157.72460938 66.96875 C-155.91029856 65.41317013 -154.15708875 63.82674146 -152.41210938 62.1953125 C-151.87054199 61.69 -151.32897461 61.1846875 -150.77099609 60.6640625 C-149.69113557 59.65332076 -148.61454031 58.63907729 -147.54150391 57.62109375 C-143.72668696 54.06640625 -143.72668696 54.06640625 -141.50585938 54.06640625 C-141.50585938 53.40640625 -141.50585938 52.74640625 -141.50585938 52.06640625 C-139.45117188 50.3671875 -139.45117188 50.3671875 -136.63085938 48.37890625 C-135.60992187 47.65832031 -134.58898437 46.93773437 -133.53710938 46.1953125 C-132.53679687 45.49277344 -131.53648437 44.79023437 -130.50585938 44.06640625 C-129.77367187 43.51855469 -129.04148437 42.97070312 -128.28710938 42.40625 C-91.39917944 15.20808427 -45.49275616 1.20557577 0 0 Z M-139.92089844 84.7043457 C-141.4964139 86.05828914 -143.0971125 87.37627379 -144.70507812 88.69140625 C-146.98279863 90.62286241 -148.95472917 92.48637202 -150.88085938 94.75390625 C-151.38359375 95.33527344 -151.88632813 95.91664062 -152.40429688 96.515625 C-153.69889251 98.02112534 -153.69889251 98.02112534 -153.50585938 100.06640625 C-154.16585937 100.06640625 -154.82585937 100.06640625 -155.50585938 100.06640625 C-155.50585938 100.72640625 -155.50585938 101.38640625 -155.50585938 102.06640625 C-156.16585937 102.06640625 -156.82585937 102.06640625 -157.50585938 102.06640625 C-157.50585938 102.72640625 -157.50585938 103.38640625 -157.50585938 104.06640625 C-138.92068361 104.90793155 -120.39123865 105.16310048 -101.7890625 105.02929688 C-100.95189194 105.02506714 -100.11472137 105.0208374 -99.25218201 105.01647949 C-97.68254174 105.00835762 -96.11291502 104.99604099 -94.54335022 104.9786377 C-91.59245152 104.96503299 -88.79785105 105.01007096 -85.89485168 105.57015991 C-81.36992547 106.23273978 -76.95501915 106.1590463 -72.38916016 106.10400391 C-70.87090291 106.09197229 -70.87090291 106.09197229 -69.3219738 106.07969761 C-65.94830807 106.05166073 -62.57476542 106.01608822 -59.20117188 105.98046875 C-56.802901 105.95890148 -54.4046261 105.93777768 -52.00634766 105.91706848 C-45.55293908 105.85996854 -39.09961129 105.79624194 -32.64627838 105.73121262 C-26.62166015 105.67097448 -20.59698627 105.61676352 -14.57231879 105.56172454 C21.43972856 105.23171537 57.45142992 104.8515757 93.46221352 104.4040451 C97.65774249 104.35193057 101.85328258 104.30076054 106.04882812 104.25 C106.83142879 104.2404554 107.61402946 104.2309108 108.42034531 104.22107697 C118.91177851 104.09491087 129.39998818 104.04980483 139.89230347 104.07810974 C147.10511638 104.08918989 154.28864901 103.9130944 161.49414062 103.56640625 C163.12029297 103.49486328 163.12029297 103.49486328 164.77929688 103.421875 C167.35116441 103.30807555 169.92271562 103.18972969 172.49414062 103.06640625 C172.16414063 102.07640625 171.83414062 101.08640625 171.49414062 100.06640625 C170.83414062 100.06640625 170.17414063 100.06640625 169.49414062 100.06640625 C169.07455078 99.17501953 169.07455078 99.17501953 168.64648438 98.265625 C165.10547982 91.50770784 159.14053462 86.98410643 153.27148438 82.3125 C150.8400934 80.34618521 148.53908707 78.31282177 146.24414062 76.19140625 C125.42882316 57.64419016 100.26730172 44.59712448 74.18164062 35.19140625 C73.05508057 34.77979248 73.05508057 34.77979248 71.90576172 34.35986328 C59.04801325 29.91940025 45.45339789 28.34282854 31.99414062 26.87890625 C31.20800385 26.79302246 30.42186707 26.70713867 29.61190796 26.61865234 C-34.5318416 19.72341231 -91.97732422 42.93223158 -139.92089844 84.7043457 Z M197.49414062 151.06640625 C198.74239104 154.28587566 200.10345086 157.37120773 201.68164062 160.44140625 C205.12072994 167.23721148 208.29638323 174.15482686 211.49414062 181.06640625 C212.81414062 180.40640625 214.13414062 179.74640625 215.49414062 179.06640625 C214.46194703 173.18290274 212.76469827 167.84466325 210.55664062 162.31640625 C210.30382324 161.67888428 210.05100586 161.0413623 209.79052734 160.38452148 C207.59292153 154.97459218 207.59292153 154.97459218 204.49414062 150.06640625 C200.59954988 149.85558774 200.59954988 149.85558774 197.49414062 151.06640625 Z M-192.50585938 158.06640625 C-195.21735849 162.05055937 -196.40075577 165.91370232 -197.56835938 170.56640625 C-197.91721191 171.77240479 -198.26606445 172.97840332 -198.62548828 174.22094727 C-199.64787078 177.82261939 -200.58574738 181.43744375 -201.50585938 185.06640625 C-202.02198868 186.98198596 -202.53884497 188.89737004 -203.05664062 190.8125 C-217.93422548 247.80014145 -208.96522538 305.91093715 -179.80664062 356.8359375 C-174.10767174 366.5376323 -167.69454982 375.42206197 -160.50585938 384.06640625 C-160.05694336 384.63423828 -159.60802734 385.20207031 -159.14550781 385.78710938 C-157.97623022 387.24977557 -156.74550182 388.66287887 -155.50585938 390.06640625 C-154.84585938 390.06640625 -154.18585938 390.06640625 -153.50585938 390.06640625 C-153.50585938 390.72640625 -153.50585938 391.38640625 -153.50585938 392.06640625 C-152.84585938 392.06640625 -152.18585938 392.06640625 -151.50585938 392.06640625 C-151.50585938 392.72640625 -151.50585938 393.38640625 -151.50585938 394.06640625 C-150.84585938 394.06640625 -150.18585938 394.06640625 -149.50585938 394.06640625 C-149.50585938 394.72640625 -149.50585938 395.38640625 -149.50585938 396.06640625 C-147.826261 397.84312322 -147.826261 397.84312322 -145.69335938 399.62890625 C-144.98566406 400.24894531 -144.27796875 400.86898437 -143.54882812 401.5078125 C-141.4931247 403.25065379 -141.4931247 403.25065379 -138.50585938 404.06640625 C-138.50585938 404.72640625 -138.50585938 405.38640625 -138.50585938 406.06640625 C-137.15670532 407.36617225 -137.15670532 407.36617225 -135.35742188 408.640625 C-134.68066406 409.14400391 -134.00390625 409.64738281 -133.30664062 410.16601562 C-132.58863281 410.69001953 -131.870625 411.21402344 -131.13085938 411.75390625 C-130.45152344 412.25857422 -129.7721875 412.76324219 -129.07226562 413.28320312 C-126.89440248 414.89319354 -124.70258349 416.4822573 -122.50585938 418.06640625 C-121.7134082 418.64285889 -120.92095703 419.21931152 -120.10449219 419.81323242 C-114.28314152 423.98107666 -108.30718895 427.610621 -102.00585938 431.00390625 C-101.05098633 431.51969238 -100.09611328 432.03547852 -99.11230469 432.56689453 C-45.67500396 461.08160725 14.78803985 467.53848663 73.01049805 450.41455078 C86.84072616 446.2051803 99.74598643 440.88480651 112.49414062 434.06640625 C113.38697754 433.59098389 113.38697754 433.59098389 114.29785156 433.10595703 C128.37753313 425.53214059 141.32231701 416.40613877 153.49414062 406.06640625 C154.57724887 405.21195419 155.66054212 404.35773649 156.74414062 403.50390625 C159.63373474 400.9426751 162.08294103 398.23013 164.58007812 395.29296875 C166.64304861 392.89318676 168.78429722 390.57835015 170.93164062 388.25390625 C206.60619651 348.59538981 227.02989875 291.14501808 225.43017578 237.93896484 C225.25128912 234.63082144 224.94420066 231.34838249 224.49414062 228.06640625 C219.99519727 229.58299921 216.44532403 232.06160262 212.68164062 234.87890625 C211.71291016 235.59880737 211.71291016 235.59880737 210.72460938 236.33325195 C194.98766004 247.99300393 194.98766004 247.99300393 181.49414062 262.06640625 C179.82747396 263.73307292 178.16080729 265.39973958 176.49414062 267.06640625 C175.38487772 268.353699 174.28117418 269.64579335 173.18164062 270.94140625 C170.13371393 274.47513786 166.82878766 277.46300848 163.27539062 280.4765625 C161.04678971 282.46568657 159.30345499 284.69558053 157.49414062 287.06640625 C155.82747396 288.73307292 154.16080729 290.39973958 152.49414062 292.06640625 C146.30610623 298.6350786 146.30610623 298.6350786 140.86914062 305.81640625 C139.22043536 308.27095867 137.53839708 309.90655645 135.19335938 311.6953125 C130.95213273 315.26204943 128.55635692 319.43117522 125.93164062 324.25390625 C125.45621826 325.10251221 124.9807959 325.95111816 124.4909668 326.82543945 C123.1462617 329.23246847 121.81910653 331.6484765 120.49414062 334.06640625 C119.9140625 335.09765625 119.33398438 336.12890625 118.73632812 337.19140625 C106.09011083 358.99222465 106.09011083 358.99222465 100.49414062 383.06640625 C100.18476562 384.95359375 100.18476562 384.95359375 99.86914062 386.87890625 C99.50387444 389.98366884 99.80954526 392.05725199 100.49414062 395.06640625 C93.79394273 395.76773538 87.23156709 396.17685586 80.49414062 396.06640625 C80.16414063 395.40640625 79.83414062 394.74640625 79.49414062 394.06640625 C78.50414062 394.06640625 77.51414062 394.06640625 76.49414062 394.06640625 C76.44773437 393.17050781 76.40132813 392.27460938 76.35351562 391.3515625 C75.48464918 385.30139631 72.37464454 379.94812939 69.74414062 374.50390625 C65.47565024 365.48971077 61.47304624 356.59197653 58.49414062 347.06640625 C58.16414063 347.06640625 57.83414062 347.06640625 57.49414062 347.06640625 C57.18237539 353.38314861 56.88022553 359.70029867 56.5847168 366.01782227 C56.48308447 368.16636539 56.37926147 370.31480606 56.27319336 372.46313477 C56.12100699 375.55330392 55.97673449 378.64375733 55.83398438 381.734375 C55.78507553 382.69288864 55.73616669 383.65140228 55.68577576 384.63896179 C55.64565872 385.53951797 55.60554169 386.44007416 55.56420898 387.36791992 C55.52645859 388.15623703 55.48870819 388.94455414 55.44981384 389.75675964 C55.49852095 392.2946432 55.92941566 394.5960869 56.49414062 397.06640625 C46.08136482 398.79159988 36.12906918 399.80480946 25.61914062 398.50390625 C19.2198376 397.75104707 12.8844416 398.46789103 6.49414062 399.06640625 C6.51154297 397.85404297 6.51154297 397.85404297 6.52929688 396.6171875 C6.53832031 395.54855469 6.54734375 394.47992188 6.55664062 393.37890625 C6.57404297 391.79529297 6.57404297 391.79529297 6.59179688 390.1796875 C6.50224047 387.32462937 6.05783257 384.85427802 5.49414062 382.06640625 C5.40230606 380.00553052 5.36411525 377.94182096 5.36914062 375.87890625 C5.3665625 374.83347656 5.36398437 373.78804687 5.36132812 372.7109375 C5.4569188 370.08781685 5.66435445 367.67699352 5.99534607 365.09146118 C6.87231443 356.43428304 6.62460654 347.71189315 6.60766602 339.02099609 C6.60738364 336.98999025 6.60754287 334.9589843 6.60810852 332.92797852 C6.60839451 327.43700125 6.6025298 321.946046 6.59553456 316.45507383 C6.58926804 310.70821972 6.58869462 304.96136506 6.58750916 299.21450806 C6.58440555 288.34213428 6.57620527 277.4697706 6.56615967 266.59740126 C6.55496835 254.21530231 6.54948048 241.83320287 6.54446423 229.45110011 C6.53402183 203.98952861 6.51568844 178.52797094 6.49414062 153.06640625 C-18.58585938 153.06640625 -43.66585937 153.06640625 -69.50585938 153.06640625 C-69.50585938 166.68380383 -69.48834775 180.21326218 -69.07833862 193.80902672 C-68.57753269 210.83723248 -68.41972094 227.8555874 -68.44335938 244.890625 C-68.4447995 245.98760838 -68.44623962 247.08459175 -68.44772339 248.21481705 C-68.45986373 256.06120277 -68.48189544 263.90754905 -68.50585938 271.75390625 C-68.52981807 279.68423527 -68.55001448 287.61454372 -68.5617981 295.54490089 C-68.56810603 298.64126736 -68.5805834 301.73756338 -68.59350586 304.83390808 C-68.62063858 314.79961898 -68.49644531 324.7507423 -68.12695312 334.71020508 C-68.09634293 335.67551745 -68.06573273 336.64082983 -68.03419495 337.6353941 C-67.8400669 342.18672943 -67.58698442 345.91958488 -65.50585938 350.06640625 C-65.50585938 350.39640625 -65.50585938 350.72640625 -65.50585938 351.06640625 C-65.50062256 352.3301709 -65.49538574 353.59393555 -65.48999023 354.89599609 C-65.4719526 359.42870376 -65.46042793 363.96140765 -65.45092773 368.49414062 C-65.44589134 370.45540909 -65.43906197 372.41667379 -65.43041992 374.37792969 C-65.418307 377.19857712 -65.41262088 380.01917508 -65.40820312 382.83984375 C-65.40304184 383.71804779 -65.39788055 384.59625183 -65.39256287 385.50106812 C-65.39248734 386.31846466 -65.3924118 387.13586121 -65.39233398 387.97802734 C-65.39011337 388.6967099 -65.38789276 389.41539246 -65.38560486 390.15585327 C-65.50585938 392.06640625 -65.50585938 392.06640625 -66.50585938 395.06640625 C-81.02585938 395.06640625 -95.54585938 395.06640625 -110.50585938 395.06640625 C-110.50585938 394.40640625 -110.50585938 393.74640625 -110.50585938 393.06640625 C-112.15585938 392.73640625 -113.80585938 392.40640625 -115.50585938 392.06640625 C-115.22742188 391.10734375 -115.22742188 391.10734375 -114.94335938 390.12890625 C-114.35275166 386.97990268 -114.35275166 386.97990268 -114.98168945 383.47558594 C-115.88795905 375.84156127 -115.55264601 368.12997871 -115.45507812 360.45703125 C-115.43643486 358.70739573 -115.41811636 356.95775672 -115.40010071 355.20811462 C-115.35001595 350.54089403 -115.29173621 345.87381226 -115.23077393 341.20672226 C-115.19332913 338.31407002 -115.15784999 335.42139924 -115.12280273 332.52871704 C-114.7098765 298.88205892 -114.16702671 265.20789261 -111.97851562 231.62109375 C-111.48761667 224.08517029 -111.18478905 216.55155214 -110.94335938 209.00390625 C-110.87858398 207.15442383 -110.87858398 207.15442383 -110.8125 205.26757812 C-110.23781384 187.81718714 -110.76092317 170.50306462 -111.50585938 153.06640625 C-119.99969659 152.94973121 -128.49319009 152.86130074 -136.98763466 152.80734539 C-140.93345391 152.7814284 -144.87871856 152.74636627 -148.82421875 152.68920898 C-152.64332779 152.63423908 -156.46190891 152.60485178 -160.28138351 152.59202003 C-161.72684397 152.58289492 -163.1722808 152.56508155 -164.61751175 152.53775597 C-174.41491944 152.36015153 -183.83620643 153.03665911 -192.50585938 158.06640625 Z M177.32617188 151.5390625 C168.14958927 152.09858845 158.96971494 152.23338047 149.77929688 152.34765625 C149.01268486 152.35720903 148.24607285 152.36676182 147.45623016 152.37660408 C141.82309067 152.44526093 136.18987549 152.50618867 130.55664062 152.56640625 C124.19331047 152.63536749 117.83002889 152.70764597 111.46679688 152.78515625 C110.29788847 152.79923523 110.29788847 152.79923523 109.10536575 152.81359863 C91.89571625 153.02664775 74.69584802 153.5134565 57.49414062 154.06640625 C57.49414062 157.36640625 57.49414062 160.66640625 57.49414062 164.06640625 C58.15414063 164.06640625 58.81414062 164.06640625 59.49414062 164.06640625 C62.00576853 183.53152253 62.00576853 183.53152253 59.49414062 191.06640625 C58.83414062 191.06640625 58.17414063 191.06640625 57.49414062 191.06640625 C57.34030214 204.85248589 57.19233485 218.63861774 57.05117702 232.4248333 C56.98546518 238.82573534 56.91785075 245.22660569 56.84594727 251.62744141 C56.77667669 257.80004014 56.71232662 263.97267205 56.65144539 270.14535904 C56.6272965 272.50498454 56.60134896 274.86459232 56.57360649 277.22417831 C56.53516927 280.51905289 56.50302256 283.81393147 56.47241211 287.10888672 C56.45299309 288.58486832 56.45299309 288.58486832 56.43318176 290.09066772 C56.42614227 290.98531738 56.41910278 291.87996704 56.41184998 292.80172729 C56.40355384 293.58156416 56.3952577 294.36140102 56.38671017 295.16486931 C56.37320395 297.15457447 56.37320395 297.15457447 57.49414062 299.06640625 C58.15414063 299.06640625 58.81414062 299.06640625 59.49414062 299.06640625 C59.16414063 302.03640625 58.83414062 305.00640625 58.49414062 308.06640625 C59.51507813 308.62328125 59.51507813 308.62328125 60.55664062 309.19140625 C67.25523948 313.46710764 71.62079759 318.25998427 76.01367188 324.89453125 C77.44988909 327.14615561 77.44988909 327.14615561 79.49414062 329.06640625 C79.78546875 328.339375 80.07679688 327.61234375 80.37695312 326.86328125 C84.43129045 316.91868027 89.02329847 307.31024299 94.49414062 298.06640625 C95.68184928 296.02486096 96.86933002 293.98318306 98.05664062 291.94140625 C99.19956773 289.98137536 100.34526664 288.02295731 101.49414062 286.06640625 C102.17283203 284.85017578 102.17283203 284.85017578 102.86523438 283.609375 C104.97330743 280.31835447 107.43042482 277.4467804 109.99414062 274.50390625 C110.52749023 273.88749268 111.06083984 273.2710791 111.61035156 272.63598633 C116.79202424 266.67430164 122.10185659 260.83835945 127.49414062 255.06640625 C128.43942627 254.05344482 128.43942627 254.05344482 129.40380859 253.02001953 C131.49381781 250.78302939 133.58699824 248.5490583 135.68164062 246.31640625 C136.66148926 245.27069458 136.66148926 245.27069458 137.66113281 244.20385742 C141.68115409 239.93321769 145.7865503 235.7829334 150.01879883 231.72167969 C151.71592991 230.18712312 151.71592991 230.18712312 151.49414062 228.06640625 C152.15414062 228.06640625 152.81414062 228.06640625 153.49414062 228.06640625 C153.49414062 227.40640625 153.49414062 226.74640625 153.49414062 226.06640625 C154.33138672 225.70482422 154.33138672 225.70482422 155.18554688 225.3359375 C157.98306272 223.79754046 160.07900978 221.91078661 162.43164062 219.75390625 C163.68267578 218.61501953 163.68267578 218.61501953 164.95898438 217.453125 C166.63975121 215.87076978 168.29417701 214.25992835 169.91992188 212.62109375 C178.46551713 204.14033609 187.87115073 196.84323337 197.80761719 190.07592773 C201.36694515 187.64075278 204.57061261 185.27774273 207.49414062 182.06640625 C207.04055176 181.67235596 206.58696289 181.27830566 206.11962891 180.87231445 C204.19616728 178.73535956 203.4606758 176.87251804 202.48632812 174.171875 C202.13957031 173.21603516 201.7928125 172.26019531 201.43554688 171.27539062 C201.08363281 170.27830078 200.73171875 169.28121094 200.36914062 168.25390625 C200.00949219 167.26841797 199.64984375 166.28292969 199.27929688 165.26757812 C197.58956499 160.55594745 196.05490245 156.07078076 195.49414062 151.06640625 C189.41052818 150.945806 183.39638037 151.12030787 177.32617188 151.5390625 Z M56.49414062 345.06640625 C57.49414062 347.06640625 57.49414062 347.06640625 57.49414062 347.06640625 Z " fill="#EE09D8" transform="translate(252.505859375,13.93359375)"/>
<path d="M0 0 C0.66 0 1.32 0 2 0 C6.73680405 6.10065166 9.66647765 13.4823428 12.6394043 20.55273438 C13.91451435 23.57969311 15.17123215 26.25684823 17 29 C17.5775 28.690625 18.155 28.38125 18.75 28.0625 C21 27 21 27 22.6953125 26.65625 C26.05365932 25.69997497 29.04105183 24.04306065 32.125 22.4375 C38.73091977 19 38.73091977 19 41 19 C41.07420166 18.38415039 41.14840332 17.76830078 41.22485352 17.13378906 C42 15 42 15 43.91772461 13.81152344 C44.73764893 13.49731445 45.55757324 13.18310547 46.40234375 12.859375 C47.29244141 12.51132813 48.18253906 12.16328125 49.09960938 11.8046875 C50.03611328 11.45664063 50.97261719 11.10859375 51.9375 10.75 C52.87013672 10.38648438 53.80277344 10.02296875 54.76367188 9.6484375 C61.64861372 7 61.64861372 7 64 7 C64.30507217 13.70657246 64.51470228 20.4113521 64.65917969 27.12329102 C64.71941356 29.40424432 64.80122675 31.68473633 64.90527344 33.96411133 C65.74949102 52.93831532 65.74949102 52.93831532 61.45117188 58.00366211 C58.31235646 59.84754778 55.48199153 60.97335777 52 62 C50.31951018 62.78351004 48.64955427 63.59079773 47 64.4375 C46.20335937 64.82679688 45.40671875 65.21609375 44.5859375 65.6171875 C38.82046117 68.70023678 32.70854457 72.22964217 28.1171875 76.92578125 C25.20112976 79.78265701 21.8949152 81.87614918 18.5 84.125 C11.26137526 89.00893107 4.59108696 94.26222341 -2 100 C-2.78375 100.66128906 -3.5675 101.32257813 -4.375 102.00390625 C-8.02663945 105.11182732 -11.02308316 108.22160555 -14 112 C-14.66 112 -15.32 112 -16 112 C-16.25523437 112.57105469 -16.51046875 113.14210938 -16.7734375 113.73046875 C-20.3763461 120.39699707 -26.5120252 125.60570355 -32.2421875 130.42578125 C-34.4485029 132.40165926 -36.17131094 134.67897158 -38 137 C-38.66 137 -39.32 137 -40 137 C-40.24234375 137.56203125 -40.4846875 138.1240625 -40.734375 138.703125 C-42.2501063 141.45389663 -44.10388242 143.45788803 -46.25 145.75 C-49.59404367 149.38296905 -52.63325887 153.03788044 -55.41796875 157.11328125 C-57 159 -57 159 -59.83203125 161.16015625 C-63.85827642 164.42958376 -66.03427661 168.63277535 -68.5 173.125 C-68.97993408 173.97811768 -69.45986816 174.83123535 -69.9543457 175.71020508 C-71.31415867 178.13407919 -72.65832583 180.56605523 -74 183 C-74.58136719 184.03253906 -75.16273438 185.06507813 -75.76171875 186.12890625 C-88.41313681 207.92719423 -88.41313681 207.92719423 -94 232 C-94.2784375 233.8871875 -94.2784375 233.8871875 -94.5625 235.8125 C-94.94604967 238.60693334 -95.03340894 241.18887674 -95 244 C-101.76485645 245.6120509 -108.04958914 246.26618595 -115 246 C-115.33 245.01 -115.66 244.02 -116 243 C-116.99 243 -117.98 243 -119 243 C-119.12375 242.46375 -119.2475 241.9275 -119.375 241.375 C-120.84725885 235.78041637 -123.01366563 230.80093624 -125.6875 225.6875 C-130.30464015 216.81403504 -133.85661517 207.57254621 -137.21264648 198.15771484 C-137.82956265 196.46707761 -138.52379891 194.80462192 -139.24609375 193.15625 C-140.47851629 187.9966779 -139.9729318 182.89167717 -139.6875 177.625 C-139.63916016 176.52671875 -139.59082031 175.4284375 -139.54101562 174.296875 C-139.26571979 168.48429961 -138.82000611 162.76106859 -138 157 C-130.61787391 157.95670286 -126.09566898 163.35612623 -121.640625 168.9765625 C-119.71292703 171.62202036 -117.83053854 174.28661317 -116 177 C-115.78085937 176.34515625 -115.56171875 175.6903125 -115.3359375 175.015625 C-111.90934868 165.15373522 -107.3102441 155.97248141 -102 147 C-100.81229134 144.95845471 -99.6248106 142.91677681 -98.4375 140.875 C-97.29457289 138.91496911 -96.14887399 136.95655106 -95 135 C-94.32130859 133.78376953 -94.32130859 133.78376953 -93.62890625 132.54296875 C-91.52083319 129.25194822 -89.0637158 126.38037415 -86.5 123.4375 C-85.96665039 122.82108643 -85.43330078 122.20467285 -84.88378906 121.56958008 C-79.70211638 115.60789539 -74.39228403 109.7719532 -69 104 C-68.05471436 102.98703857 -68.05471436 102.98703857 -67.09033203 101.95361328 C-65.00032281 99.71662314 -62.90714238 97.48265205 -60.8125 95.25 C-59.83265137 94.20428833 -59.83265137 94.20428833 -58.83300781 93.13745117 C-54.83099296 88.88594043 -50.750717 84.73462717 -46.57299805 80.65527344 C-44.91347644 79.07024865 -44.91347644 79.07024865 -44 77 C-43.34 77 -42.68 77 -42 77 C-42 76.34 -42 75.68 -42 75 C-40.52520322 73.73588848 -38.9928273 72.53859807 -37.4375 71.375 C-34.05013583 68.74514765 -31.11134227 66.17638742 -28.375 62.875 C-25.61859482 59.57498823 -22.76670587 57.1565686 -19.26953125 54.67578125 C-16.56404907 52.67810164 -14.05072122 50.5042564 -11.5 48.3125 C-4.38117765 42.31626117 3.26536973 37.16296386 11 32 C10.54713623 31.44296387 10.09427246 30.88592773 9.62768555 30.31201172 C6.81002729 26.30972828 5.46295675 21.70330136 3.8125 17.125 C3.44447266 16.14402344 3.07644531 15.16304687 2.69726562 14.15234375 C0.93969085 9.31982831 -0.54048235 5.22761616 0 0 Z " fill="#36C992" transform="translate(448,165)"/>
<path d="M0 0 C1.41659912 0.08725342 1.41659912 0.08725342 2.86181641 0.17626953 C34.15896129 2.24311767 66.39085277 11.27777669 95 24 C96.10770752 24.48484863 96.10770752 24.48484863 97.23779297 24.97949219 C142.72519983 45.02546627 142.72519983 45.02546627 150 62 C149.67 62.66 149.34 63.32 149 64 C142.52241528 62.96358644 137.62026261 58.76573702 132.75 54.6875 C103.59467262 30.47710603 60.68899164 16.92131238 24 10 C23.01733154 9.81308594 22.03466309 9.62617187 21.0222168 9.43359375 C12.43606135 7.94756639 4.01072493 7.67920109 -4.6875 7.75 C-5.39297974 7.75376648 -6.09845947 7.75753296 -6.82531738 7.76141357 C-31.99483268 7.91858969 -55.9857073 12.32725314 -80 20 C-81.47883493 20.43862003 -82.95792366 20.87638749 -84.4375 21.3125 C-96.42358048 25.43135311 -106.6631594 32.18773834 -116.88525391 39.5 C-119.07818999 41.05546055 -121.2917056 42.57722525 -123.51171875 44.09375 C-130.26816405 48.7346071 -136.69165025 53.20773383 -142.296875 59.2421875 C-145.17824543 62.216079 -148.42148047 64.90525686 -152 67 C-152.99 67 -153.98 67 -155 67 C-155.29722777 61.94712793 -155.26210653 58.95406853 -152 55 C-149.13882348 52.47197417 -146.09021177 50.23909412 -143 48 C-141.96359375 47.24589844 -140.9271875 46.49179688 -139.859375 45.71484375 C-136.89299052 43.57025125 -133.90607908 41.45595977 -130.91210938 39.35009766 C-128.98112208 37.98667072 -127.06096426 36.60883915 -125.140625 35.23046875 C-106.73905498 22.13655935 -87.24621315 14.26376731 -66 7 C-65.11151367 6.69513672 -64.22302734 6.39027344 -63.30761719 6.07617188 C-58.58621596 4.48710474 -53.85582655 3.11402548 -49 2 C-48.28424805 1.83532227 -47.56849609 1.67064453 -46.83105469 1.50097656 C-31.26885841 -1.87049882 -15.79454671 -1.02883381 0 0 Z " fill="#00D8FE" transform="translate(263,46)"/>
<path d="M0 0 C2.9057899 -0.00627687 5.8115473 -0.01616881 8.7173233 -0.02705765 C13.22490097 -0.04342785 17.73237844 -0.04990035 22.23998451 -0.04803467 C23.8763359 -0.0488321 25.51268952 -0.05296044 27.14902306 -0.06064606 C29.35629653 -0.07032429 31.56320685 -0.06772082 33.77048492 -0.0616951 C35.00025558 -0.06312012 36.23002625 -0.06454514 37.49706268 -0.06601334 C40.34250641 0.18122482 40.34250641 0.18122482 42.34250641 2.18122482 C41.78695085 6.73678038 41.78695085 6.73678038 40.34250641 8.18122482 C38.21874541 8.28821277 36.09137793 8.32369089 33.96494293 8.33271408 C32.95404043 8.3390627 32.95404043 8.3390627 31.92271566 8.34553957 C29.64793027 8.35863185 27.37317997 8.36460542 25.09836578 8.37067795 C23.4742435 8.37861506 21.85012336 8.38700258 20.22600555 8.39580917 C16.72068144 8.41390383 13.21536218 8.42890585 9.71001434 8.44158554 C4.17321482 8.46174995 -1.36353131 8.48940943 -6.90029144 8.51826096 C-19.65339334 8.58355789 -32.40653486 8.63892556 -45.15968323 8.6942482 C-56.8443571 8.7450373 -68.52901165 8.79788624 -80.21363783 8.85877371 C-85.72365792 8.88719846 -91.23367156 8.91076719 -96.74372864 8.93069839 C-100.1646509 8.94404514 -103.58554348 8.96145966 -107.00644112 8.98000908 C-108.59922094 8.98779302 -110.19201022 8.99385029 -111.78480339 8.99810219 C-113.94989672 9.00410997 -116.11487318 9.01613869 -118.27993011 9.02973557 C-119.49447624 9.0348893 -120.70902237 9.04004303 -121.96037292 9.04535294 C-124.57463554 8.87482188 -124.57463554 8.87482188 -125.65749359 10.18122482 C-142.95412763 12.17983732 -160.28534932 11.04456633 -177.53249359 9.18122482 C-178.70159271 9.05674973 -178.70159271 9.05674973 -179.89431 8.92975998 C-185.41089933 8.30452195 -185.41089933 8.30452195 -187.65749359 7.18122482 C-187.65749359 6.52122482 -187.65749359 5.86122482 -187.65749359 5.18122482 C-187.01811859 5.05747482 -186.37874359 4.93372482 -185.71999359 4.80622482 C-185.03936859 4.59997482 -184.35874359 4.39372482 -183.65749359 4.18122482 C-183.32749359 3.52122482 -182.99749359 2.86122482 -182.65749359 2.18122482 C-168.35969799 1.28615722 -154.09808693 0.9760947 -139.77468109 0.86481857 C-137.46413679 0.843967 -135.15359504 0.82283106 -132.84305573 0.80143356 C-126.67941152 0.74578495 -120.51573476 0.69605256 -114.35202408 0.64839172 C-110.52066327 0.61863294 -106.68931319 0.58772231 -102.85796356 0.55656052 C-68.57249902 0.27995545 -34.28658376 0.05848448 0 0 Z " fill="#00D9FF" transform="translate(321.6574935913086,424.81877517700195)"/>
<path d="M0 0 C2.9375 0.8125 2.9375 0.8125 6 2 C7.4666217 6.39986511 5.57969189 9.84325221 4.08984375 14.05273438 C-0.40868874 27.45625661 -1.67344298 41.54585087 -2.6875 55.5625 C-2.75003967 56.40128693 -2.81257935 57.24007385 -2.87701416 58.10427856 C-5.43662853 90.76693815 -5.43662853 90.76693815 -1 123 C-0.71258787 124.35156887 -0.43159119 125.70451422 -0.15625 127.05859375 C1.96880971 137.23465444 5.20903972 146.81779473 9.01269531 156.48144531 C10.0157442 159.04016251 10.98827551 161.60928657 11.9609375 164.1796875 C19.71494795 184.26845438 29.52120695 204.10746035 43 221 C43.67385742 221.84667236 43.67385742 221.84667236 44.36132812 222.71044922 C48.99425017 229.179659 48.99425017 229.179659 55 234 C58 240.23076923 58 240.23076923 58 244 C53.98679714 240.84676918 50.68429437 237.59795406 47.421875 233.6796875 C44.80671487 230.59034998 41.86983308 227.82379276 38.93359375 225.04296875 C38.17175781 224.30691406 37.40992188 223.57085937 36.625 222.8125 C35.91601562 222.13832031 35.20703125 221.46414063 34.4765625 220.76953125 C5.98781021 188.91065842 -11.51141985 135.16928795 -11.3125 93.3125 C-11.31001251 92.47518341 -11.30752502 91.63786682 -11.30496216 90.775177 C-10.94354616 10.94354616 -10.94354616 10.94354616 0 0 Z " fill="#00D8FE" transform="translate(63,175)"/>
<path d="M0 0 C8.44957125 29.63472814 -11.1077521 79.31393154 -25.11328125 104.95703125 C-27.26725388 108.7329294 -29.60643267 112.37262589 -32 116 C-32.4954834 116.76086914 -32.9909668 117.52173828 -33.50146484 118.30566406 C-39.32722831 127.21189971 -45.18176776 135.801586 -52.5859375 143.48046875 C-54.55195741 145.53238274 -56.41444204 147.61564176 -58.26953125 149.765625 C-67.34915769 160.19621198 -77.10045283 170.8150395 -89 178 C-90.32951145 178.83764721 -91.65750011 179.67771384 -92.984375 180.51953125 C-96.39707807 182.67701382 -99.81830818 184.81924453 -103.26123047 186.92822266 C-104.77819688 187.86328058 -106.27925516 188.82404903 -107.77734375 189.7890625 C-110.62812581 191.34221265 -112.80335962 191.14530184 -116 191 C-116.33 191.33 -116.66 191.66 -117 192 C-118.66617115 192.04063832 -120.33388095 192.042721 -122 192 C-119.63873344 189.41495328 -117.11504206 187.74305952 -114.125 185.9375 C-109.02967011 182.75714801 -104.29899891 179.2701746 -99.59228516 175.55249023 C-96.16555435 172.85311625 -92.63266999 170.41177264 -89 168 C-83.96740179 164.04075271 -79.07923423 159.72451382 -75.1875 154.625 C-72.72038941 151.66446729 -69.99019045 149.31492802 -67.07421875 146.80859375 C-56.29231458 137.40742307 -48.0359544 125.74696057 -40 114 C-39.57396484 113.37851074 -39.14792969 112.75702148 -38.70898438 112.11669922 C-23.59241379 89.78018843 -16.66595245 64.03131922 -10.125 38.125 C-9.83874756 36.9913501 -9.55249512 35.8577002 -9.25756836 34.68969727 C-6.6995482 24.27539519 -4.89968744 14.01647544 -4.34375 3.30078125 C-4.17359375 2.16189453 -4.17359375 2.16189453 -4 1 C-2 0 -2 0 0 0 Z " fill="#00D8FE" transform="translate(472,250)"/>
<path d="M0 0 C0.66 0 1.32 0 2 0 C8.30556985 8.12110544 13.68212331 19.97741866 16 30 C14.02 30.33 12.04 30.66 10 31 C7.37627434 25.34889858 4.99898277 19.62114867 2.75 13.8125 C2.47978027 13.13574219 2.20956055 12.45898438 1.93115234 11.76171875 C0.37943145 7.69032245 -0.29774559 4.35114582 0 0 Z " fill="#00D9FF" transform="translate(448,165)"/>
<path d="M0 0 C0.33 0.99 0.66 1.98 1 3 C0.41734375 3.268125 -0.1653125 3.53625 -0.765625 3.8125 C-7.95940445 7.25103609 -14.45174714 11.46572869 -21 16 C-21.33 15.01 -21.66 14.02 -22 13 C-3.92307692 0 -3.92307692 0 0 0 Z " fill="#5AA3A0" transform="translate(499,224)"/>
<path d="M0 0 C0.66 0 1.32 0 2 0 C2 0.66 2 1.32 2 2 C2.99 1.67 3.98 1.34 5 1 C5 1.99 5 2.98 5 4 C3.27559635 4.98753064 1.54524974 5.96468806 -0.1875 6.9375 C-1.15042969 7.48277344 -2.11335938 8.02804687 -3.10546875 8.58984375 C-5.80662842 9.90579333 -8.04356101 10.57301887 -11 11 C-10.34 10.67 -9.68 10.34 -9 10 C-9.33 9.01 -9.66 8.02 -10 7 C-7.96202847 5.32595196 -6.46718174 4.10992512 -3.875 3.5 C-1.59876637 3.11426598 -1.59876637 3.11426598 0 0 Z " fill="#00D9FF" transform="translate(345,444)"/>
<path d="M0 0 C1.98 0.99 1.98 0.99 4 2 C3.84660156 3.093125 3.69320313 4.18625 3.53515625 5.3125 C2.88305132 10.52933947 2.65835966 15.75005734 2.4375 21 C2.39431641 21.96550781 2.35113281 22.93101562 2.30664062 23.92578125 C2.20158287 26.28374425 2.09943086 28.64179416 2 31 C1.34 31 0.68 31 0 31 C0 20.77 0 10.54 0 0 Z " fill="#D622CF" transform="translate(307,320)"/>
<path d="M0 0 C1.9587043 0.14076315 3.91696093 0.2877676 5.875 0.4375 C7.51082031 0.55931641 7.51082031 0.55931641 9.1796875 0.68359375 C12 1 12 1 14 2 C14 2.66 14 3.32 14 4 C8.43842552 4.91457003 4.324335 5.32086397 -1 3 C-0.67 2.01 -0.34 1.02 0 0 Z " fill="#00D8FE" transform="translate(319,440)"/>
<path d="M0 0 C0.33 0.99 0.66 1.98 1 3 C-2.63 5.31 -6.26 7.62 -10 10 C-8.85201226 5.40804906 -8.26471427 5.12179476 -4.4375 2.75 C-3.61121094 2.22921875 -2.78492188 1.7084375 -1.93359375 1.171875 C-1.29550781 0.78515625 -0.65742188 0.3984375 0 0 Z " fill="#51AD9C" transform="translate(487,230)"/>
<path d="M0 0 C11.52164009 -0.18451025 11.52164009 -0.18451025 17 1 C17 1.33 17 1.66 17 2 C5.47835991 2.18451025 5.47835991 2.18451025 0 1 C0 0.67 0 0.34 0 0 Z " fill="#00D9FF" transform="translate(250,436)"/>
<path d="M0 0 C1.98 0 3.96 0 6 0 C6 0.33 6 0.66 6 1 C4.02 1 2.04 1 0 1 C0 0.67 0 0.34 0 0 Z " fill="#00D9FF" transform="translate(183,436)"/>
<path d="M0 0 C4 1 4 1 4 1 Z " fill="#00D9FF" transform="translate(234,437)"/>
<path d="M0 0 C3 1 3 1 3 1 Z " fill="#00D9FF" transform="translate(301,442)"/>
<path d="M0 0 C2 1 2 1 2 1 Z " fill="#00D9FF" transform="translate(347,443)"/>
<path d="M0 0 C2 1 2 1 2 1 Z " fill="#00D9FF" transform="translate(206,438)"/>
<path d="" fill="#00D9FF" transform="translate(0,0)"/>
<path d="" fill="#00D9FF" transform="translate(0,0)"/>
<path d="" fill="#00D9FF" transform="translate(0,0)"/>
<path d="" fill="#00D9FF" transform="translate(0,0)"/>
</svg>
